<mxfile host="app.diagrams.net" agent="Mozilla/5.0 (Windows NT 10.0; Win64; x64) AppleWebKit/537.36 (KHTML, like Gecko) Chrome/136.0.0.0 Safari/537.36" version="27.0.1">
  <diagram name="Page-1" id="r5pY6OEH55r_MRl_l-7a">
    <mxGraphModel dx="428" dy="724" grid="1" gridSize="10" guides="1" tooltips="1" connect="1" arrows="1" fold="1" page="1" pageScale="1" pageWidth="850" pageHeight="1100" math="0" shadow="0">
      <root>
        <mxCell id="0" />
        <mxCell id="1" parent="0" />
        <mxCell id="S18QFQnf7gFGDbzn0xPW-6" value="" style="endArrow=none;html=1;rounded=0;" edge="1" parent="1">
          <mxGeometry width="50" height="50" relative="1" as="geometry">
            <mxPoint x="79.72" y="929" as="sourcePoint" />
            <mxPoint x="79.72" y="809" as="targetPoint" />
          </mxGeometry>
        </mxCell>
        <mxCell id="S18QFQnf7gFGDbzn0xPW-1" value=".40" style="ellipse;whiteSpace=wrap;html=1;aspect=fixed;" vertex="1" parent="1">
          <mxGeometry x="40" y="960" width="80" height="80" as="geometry" />
        </mxCell>
        <mxCell id="S18QFQnf7gFGDbzn0xPW-3" value="10.10.0.40&lt;div&gt;Blue Internet Host&lt;/div&gt;" style="text;html=1;align=center;verticalAlign=middle;resizable=0;points=[];autosize=1;strokeColor=none;fillColor=none;" vertex="1" parent="1">
          <mxGeometry x="20" y="1041" width="120" height="40" as="geometry" />
        </mxCell>
        <mxCell id="S18QFQnf7gFGDbzn0xPW-4" value="" style="endArrow=none;html=1;rounded=0;" edge="1" parent="1">
          <mxGeometry width="50" height="50" relative="1" as="geometry">
            <mxPoint x="80" y="960" as="sourcePoint" />
            <mxPoint x="80" y="920" as="targetPoint" />
          </mxGeometry>
        </mxCell>
        <mxCell id="S18QFQnf7gFGDbzn0xPW-5" value="SSH&lt;div&gt;Tunnel&lt;/div&gt;" style="ellipse;shape=cloud;whiteSpace=wrap;html=1;" vertex="1" parent="1">
          <mxGeometry x="20" y="850" width="120" height="80" as="geometry" />
        </mxCell>
        <mxCell id="S18QFQnf7gFGDbzn0xPW-7" value=".33" style="ellipse;whiteSpace=wrap;html=1;aspect=fixed;" vertex="1" parent="1">
          <mxGeometry x="40" y="730" width="80" height="80" as="geometry" />
        </mxCell>
        <mxCell id="S18QFQnf7gFGDbzn0xPW-8" value="10.10.0.33&lt;div&gt;Red Internet Host&lt;/div&gt;" style="text;html=1;align=center;verticalAlign=middle;resizable=0;points=[];autosize=1;strokeColor=none;fillColor=none;" vertex="1" parent="1">
          <mxGeometry x="20" y="688" width="120" height="40" as="geometry" />
        </mxCell>
        <mxCell id="S18QFQnf7gFGDbzn0xPW-9" value="SSH&lt;div&gt;Tunnel&lt;/div&gt;" style="ellipse;shape=cloud;whiteSpace=wrap;html=1;" vertex="1" parent="1">
          <mxGeometry x="170" y="720" width="120" height="80" as="geometry" />
        </mxCell>
      </root>
    </mxGraphModel>
  </diagram>
</mxfile>
